# Blender 4.2.2 LTS
# www.blender.org
mtllib Grill.mtl
o Cube
v 1.000000 0.900000 -1.000000
v 1.000000 0.850000 -1.000000
v 1.000000 0.900000 0.000000
v 1.000000 0.850000 0.000000
v -1.000000 0.900000 -1.000000
v -1.000000 0.850000 -1.000000
v -1.000000 0.900000 0.000000
v -1.000000 0.850000 0.000000
v 0.900000 0.850000 -1.000000
v 0.900000 0.900000 0.000000
v 0.900000 0.850000 0.000000
v 0.900000 0.900000 -1.000000
v 0.800000 0.850000 -1.000000
v 0.800000 0.900000 0.000000
v 0.800000 0.850000 0.000000
v 0.800000 0.900000 -1.000000
v -0.900000 0.900000 0.000000
v -0.900000 0.850000 0.000000
v -0.900000 0.900000 -1.000000
v -0.800000 0.850000 0.000000
v -0.800000 0.900000 0.000000
v 1.000000 0.850000 -0.100000
v 0.900000 0.850000 -0.100000
v 0.900000 0.900000 -0.100000
v 0.800000 0.850000 -0.100000
v -0.900000 0.850000 -0.100000
v -0.800000 0.850000 -0.100000
v 1.000000 0.850000 -0.200000
v 0.900000 0.850000 -0.200000
v 0.900000 0.900000 -0.200000
v 0.800000 0.900000 -0.200000
v -0.900000 0.850000 -0.200000
v -0.900000 0.900000 -0.200000
v 1.000000 0.850000 -0.900000
v 0.900000 0.850000 -0.900000
v 0.900000 0.900000 -0.900000
v 0.800000 0.850000 -0.900000
v -0.900000 0.850000 -0.900000
v -0.800000 0.850000 -0.900000
v 0.900000 0.850000 -0.800000
v 0.900000 0.900000 -0.800000
v 0.800000 0.850000 -0.800000
v 0.800000 0.900000 -0.800000
v -0.900000 0.850000 -0.800000
v -0.900000 0.900000 -0.800000
v 1.000000 0.850000 -0.800000
v 0.900000 0.000000 -0.200000
v 0.900000 0.000000 -0.100000
v 0.800000 0.000000 -0.200000
v 0.800000 0.000000 -0.100000
v -0.900000 0.000000 -0.200000
v -0.900000 0.000000 -0.100000
v -0.800000 0.000000 -0.200000
v -0.800000 0.000000 -0.100000
v 0.900000 0.000000 -0.800000
v 0.800000 0.000000 -0.800000
v -0.900000 0.000000 -0.800000
v -0.800000 0.000000 -0.800000
v -0.800000 0.000000 -0.900000
v -0.900000 0.000000 -0.900000
v 0.900000 0.000000 -0.900000
v 0.800000 0.000000 -0.900000
v 0.220000 0.900000 -0.200000
v 0.200000 0.900000 -0.800000
v 0.875000 0.850000 -0.200000
v 0.250000 0.850000 -0.900000
v 0.800000 0.850000 -0.850000
v -0.780000 0.900000 -0.200000
v -0.780000 0.900000 -0.800000
v 0.200000 0.900000 -0.200000
v 0.825000 0.850000 -0.500000
v 0.825000 0.850000 -0.200000
v 0.825000 0.000000 -0.800000
v 0.825000 0.000000 -0.200000
v 0.825000 0.850000 -0.800000
v 0.875000 0.850000 -0.800000
v 0.875000 0.000000 -0.800000
v 0.875000 0.000000 -0.200000
v -0.800000 0.850000 -0.125000
v 0.800000 0.850000 -0.125000
v 0.800000 0.000000 -0.125000
v -0.800000 0.000000 -0.125000
v 0.800000 0.850000 -0.200000
v -0.825000 0.850000 -0.200000
v -0.825000 -0.000000 -0.800000
v -0.825000 0.850000 -0.800000
v -0.825000 -0.000000 -0.200000
v -0.875000 0.850000 -0.200000
v -0.875000 0.850000 -0.800000
v -0.875000 0.000000 -0.800000
v -0.875000 0.000000 -0.200000
v 0.800000 0.000000 -0.175000
v -0.800000 0.000000 -0.175000
v 0.800000 0.850000 -0.175000
v -0.800000 0.850000 -0.175000
v 0.800000 0.345000 -0.175000
v 0.800000 0.345000 -0.800000
v -0.825000 0.345000 -0.200000
v -0.800000 0.345000 -0.175000
v 0.800000 0.345000 -0.900000
v 0.825000 0.345000 -0.800000
v -0.800000 0.345000 -0.800000
v 0.825000 0.345000 -0.200000
v 0.800000 0.345000 -0.200000
v -0.800000 0.345000 -0.900000
v -0.825000 0.345000 -0.800000
v -0.800000 0.345000 -0.200000
v 0.825000 0.315000 -0.800000
v -0.825000 0.315000 -0.200000
v 0.800000 0.315000 -0.200000
v -0.800000 0.315000 -0.200000
v 0.800000 0.315000 -0.175000
v -0.800000 0.315000 -0.175000
v 0.800000 0.315000 -0.900000
v -0.800000 0.315000 -0.800000
v 0.825000 0.315000 -0.200000
v -0.800000 0.315000 -0.900000
v -0.825000 0.315000 -0.800000
v 0.800000 0.315000 -0.800000
v -0.746207 0.900000 -0.200000
v -0.712414 0.900000 -0.200000
v -0.678621 0.900000 -0.200000
v -0.644828 0.900000 -0.200000
v -0.611034 0.900000 -0.200000
v -0.577241 0.900000 -0.200000
v -0.543448 0.900000 -0.200000
v -0.509655 0.900000 -0.200000
v -0.475862 0.900000 -0.200000
v -0.442069 0.900000 -0.200000
v -0.408276 0.900000 -0.200000
v -0.374483 0.900000 -0.200000
v -0.340690 0.900000 -0.200000
v -0.306897 0.900000 -0.200000
v -0.273104 0.900000 -0.200000
v -0.239310 0.900000 -0.200000
v -0.205517 0.900000 -0.200000
v -0.171724 0.900000 -0.200000
v -0.137931 0.900000 -0.200000
v -0.104138 0.900000 -0.200000
v -0.070345 0.900000 -0.200000
v -0.036552 0.900000 -0.200000
v -0.002759 0.900000 -0.200000
v 0.031034 0.900000 -0.200000
v 0.064828 0.900000 -0.200000
v 0.098621 0.900000 -0.200000
v 0.132414 0.900000 -0.200000
v 0.166207 0.900000 -0.200000
v -0.746207 0.900000 -0.800000
v -0.712414 0.900000 -0.800000
v -0.678621 0.900000 -0.800000
v -0.644828 0.900000 -0.800000
v -0.611035 0.900000 -0.800000
v -0.577241 0.900000 -0.800000
v -0.543448 0.900000 -0.800000
v -0.509655 0.900000 -0.800000
v -0.475862 0.900000 -0.800000
v -0.442069 0.900000 -0.800000
v -0.408276 0.900000 -0.800000
v -0.374483 0.900000 -0.800000
v -0.340690 0.900000 -0.800000
v -0.306897 0.900000 -0.800000
v -0.273104 0.900000 -0.800000
v -0.239310 0.900000 -0.800000
v -0.205517 0.900000 -0.800000
v -0.171724 0.900000 -0.800000
v -0.137931 0.900000 -0.800000
v -0.104138 0.900000 -0.800000
v -0.070345 0.900000 -0.800000
v -0.036552 0.900000 -0.800000
v -0.002759 0.900000 -0.800000
v 0.031034 0.900000 -0.800000
v 0.064828 0.900000 -0.800000
v 0.098621 0.900000 -0.800000
v 0.132414 0.900000 -0.800000
v 0.166207 0.900000 -0.800000
v 0.176207 0.910000 -0.790000
v 0.190000 0.910000 -0.790000
v 0.176207 0.910000 -0.210000
v 0.190000 0.910000 -0.210000
v -0.770000 0.910000 -0.210000
v -0.756207 0.910000 -0.210000
v -0.702414 0.910000 -0.210000
v -0.688621 0.910000 -0.210000
v -0.634828 0.910000 -0.210000
v -0.621034 0.910000 -0.210000
v -0.567241 0.910000 -0.210000
v -0.553448 0.910000 -0.210000
v -0.499655 0.910000 -0.210000
v -0.485862 0.910000 -0.210000
v -0.432069 0.910000 -0.210000
v -0.418276 0.910000 -0.210000
v -0.364483 0.910000 -0.210000
v -0.350690 0.910000 -0.210000
v -0.296897 0.910000 -0.210000
v -0.283103 0.910000 -0.210000
v -0.229310 0.910000 -0.210000
v -0.215517 0.910000 -0.210000
v -0.161724 0.910000 -0.210000
v -0.147931 0.910000 -0.210000
v -0.094138 0.910000 -0.210000
v -0.080345 0.910000 -0.210000
v -0.026552 0.910000 -0.210000
v -0.012759 0.910000 -0.210000
v 0.041034 0.910000 -0.210000
v 0.054828 0.910000 -0.210000
v 0.108621 0.910000 -0.210000
v 0.122414 0.910000 -0.210000
v -0.770000 0.910000 -0.790000
v -0.756207 0.910000 -0.790000
v -0.702414 0.910000 -0.790000
v -0.688621 0.910000 -0.790000
v -0.634828 0.910000 -0.790000
v -0.621035 0.910000 -0.790000
v -0.567241 0.910000 -0.790000
v -0.553448 0.910000 -0.790000
v -0.499655 0.910000 -0.790000
v -0.485862 0.910000 -0.790000
v -0.432069 0.910000 -0.790000
v -0.418276 0.910000 -0.790000
v -0.364483 0.910000 -0.790000
v -0.350690 0.910000 -0.790000
v -0.296897 0.910000 -0.790000
v -0.283103 0.910000 -0.790000
v -0.229310 0.910000 -0.790000
v -0.215517 0.910000 -0.790000
v -0.161724 0.910000 -0.790000
v -0.147931 0.910000 -0.790000
v -0.094138 0.910000 -0.790000
v -0.080345 0.910000 -0.790000
v -0.026552 0.910000 -0.790000
v -0.012759 0.910000 -0.790000
v 0.041034 0.910000 -0.790000
v 0.054828 0.910000 -0.790000
v 0.108621 0.910000 -0.790000
v 0.122414 0.910000 -0.790000
v -0.800000 0.850000 -0.800000
v -0.800000 0.850000 -0.200000
v 0.250000 0.850000 -0.175000
vn -0.0000 -1.0000 -0.0000
vn -1.0000 -0.0000 -0.0000
vn -0.0000 -0.0000 -1.0000
vn -0.0000 -0.0000 1.0000
vn -0.0000 1.0000 -0.0000
vn 1.0000 -0.0000 -0.0000
vn -0.0000 0.7071 -0.7071
vn -0.0000 0.7071 0.7071
vn -0.7071 0.7071 -0.0000
vn 0.7071 0.7071 -0.0000
vt 0.362500 0.714610
vt 0.375000 0.714610
vt 0.375000 0.750000
vt 0.362500 0.750000
vt 0.337425 0.714610
vt 0.337425 0.750000
vt 0.239933 0.750000
vt 0.239933 0.714610
vt 0.125000 0.714610
vt 0.202277 0.714610
vt 0.202277 0.750000
vt 0.202277 0.689305
vt 0.125000 0.689305
vt 0.337425 0.515760
vt 0.362500 0.515760
vt 0.337425 0.534491
vt 0.362500 0.689305
vt 0.375000 0.689305
vt 0.875000 0.750000
vt 0.797723 0.714610
vt 0.797723 0.689305
vt 0.797723 0.534491
vt 0.797723 0.500000
vt 0.875000 0.534491
vt 0.362500 0.534491
vt 0.375000 0.534491
vt 0.125000 0.534491
vt 0.202277 0.534491
vt 0.625000 0.487500
vt 0.625000 0.500000
vt 0.375000 0.500000
vt 0.375000 0.487500
vt 0.375000 0.462425
vt 0.375000 0.250000
vt 0.625000 0.250000
vt 0.625000 0.364933
vt 0.625000 0.462425
vt 0.239933 0.515760
vt 0.239933 0.534491
vt 0.337425 0.689305
vt 0.337425 0.689305
vt 0.329166 0.689305
vt 0.329161 0.689305
vt 0.321782 0.689305
vt 0.662575 0.500000
vt 0.797723 0.515760
vt 0.760067 0.534491
vt 0.758692 0.534491
vt 0.757095 0.534491
vt 0.755498 0.534491
vt 0.753902 0.534491
vt 0.752305 0.534491
vt 0.750708 0.534491
vt 0.749111 0.534491
vt 0.747514 0.534491
vt 0.745917 0.534491
vt 0.744320 0.534491
vt 0.742724 0.534491
vt 0.741127 0.534491
vt 0.739530 0.534491
vt 0.737933 0.534491
vt 0.736336 0.534491
vt 0.734739 0.534491
vt 0.733142 0.534491
vt 0.731546 0.534491
vt 0.729949 0.534491
vt 0.728352 0.534491
vt 0.726755 0.534491
vt 0.725158 0.534491
vt 0.723561 0.534491
vt 0.721964 0.534491
vt 0.720368 0.534491
vt 0.718771 0.534491
vt 0.717174 0.534491
vt 0.715577 0.534491
vt 0.713980 0.534491
vt 0.711321 0.534491
vt 0.662575 0.534491
vt 0.637500 0.534491
vt 0.637500 0.515760
vt 0.637500 0.500000
vt 0.625000 0.922723
vt 0.625000 1.000000
vt 0.375000 1.000000
vt 0.375000 0.922723
vt 0.375000 0.885067
vt 0.375000 0.787575
vt 0.375000 0.762500
vt 0.625000 0.750000
vt 0.625000 0.762500
vt 0.625000 0.787575
vt 0.625000 0.885067
vt 0.375000 0.515760
vt 0.625000 0.534491
vt 0.125000 0.515760
vt 0.202277 0.515760
vt 0.211691 0.689305
vt 0.230519 0.689305
vt 0.239933 0.689305
vt 0.239933 0.695631
vt 0.239933 0.708284
vt 0.343694 0.689305
vt 0.356231 0.689305
vt 0.337425 0.708284
vt 0.337425 0.695631
vt 0.230519 0.534491
vt 0.211691 0.534491
vt 0.356231 0.534492
vt 0.343694 0.534491
vt 0.337425 0.525126
vt 0.303130 0.689305
vt 0.273376 0.689305
vt 0.375000 0.215509
vt 0.375000 0.000000
vt 0.625000 0.060695
vt 0.337425 0.611898
vt 0.354142 0.689305
vt 0.306367 0.556137
vt 0.214829 0.534491
vt 0.330020 0.689305
vt 0.330025 0.689305
vt 0.337425 0.697740
vt 0.307471 0.689305
vt 0.713980 0.689305
vt 0.715577 0.689305
vt 0.239933 0.500000
vt 0.337425 0.500000
vt 0.362500 0.500000
vt 0.288679 0.515760
vt 0.318021 0.689305
vt 0.305177 0.689305
vt 0.310774 0.689305
vt 0.314645 0.689305
vt 0.239933 0.689305
vt 0.269892 0.689305
vt 0.273334 0.689305
vt 0.305416 0.689305
vt 0.297755 0.584436
vt 0.318413 0.689305
vt 0.269854 0.689305
vt 0.712856 0.537072
vt 0.713508 0.537072
vt 0.713508 0.686725
vt 0.712856 0.686725
vt 0.716050 0.686725
vt 0.716050 0.537072
vt 0.716701 0.537072
vt 0.716701 0.686725
vt 0.719243 0.686725
vt 0.719243 0.537072
vt 0.719895 0.537072
vt 0.719895 0.686725
vt 0.722437 0.686725
vt 0.722437 0.537072
vt 0.723089 0.537072
vt 0.723089 0.686725
vt 0.725631 0.686725
vt 0.725631 0.537072
vt 0.726282 0.537072
vt 0.726283 0.686725
vt 0.729476 0.686725
vt 0.728824 0.686725
vt 0.728824 0.537072
vt 0.729476 0.537072
vt 0.732670 0.686725
vt 0.732018 0.686725
vt 0.732018 0.537072
vt 0.732670 0.537072
vt 0.735212 0.686725
vt 0.735212 0.537072
vt 0.735864 0.537072
vt 0.735864 0.686725
vt 0.739057 0.686725
vt 0.738406 0.686725
vt 0.738406 0.537072
vt 0.739057 0.537072
vt 0.741599 0.686725
vt 0.741599 0.537072
vt 0.742251 0.537072
vt 0.742251 0.686725
vt 0.744793 0.686725
vt 0.744793 0.537072
vt 0.745445 0.537072
vt 0.745445 0.686725
vt 0.748638 0.686725
vt 0.747987 0.686725
vt 0.747987 0.537072
vt 0.748639 0.537072
vt 0.751832 0.686725
vt 0.751181 0.686725
vt 0.751181 0.537072
vt 0.751832 0.537072
vt 0.755026 0.686725
vt 0.754374 0.686725
vt 0.754374 0.537072
vt 0.755026 0.537072
vt 0.758220 0.686725
vt 0.757568 0.686725
vt 0.757568 0.537072
vt 0.758220 0.537072
vt 0.712383 0.534492
vt 0.712383 0.689305
vt 0.758692 0.689305
vt 0.757095 0.689305
vt 0.755498 0.689305
vt 0.753902 0.689305
vt 0.752305 0.689305
vt 0.750708 0.689305
vt 0.749111 0.689305
vt 0.747514 0.689305
vt 0.745917 0.689305
vt 0.744320 0.689305
vt 0.742724 0.689305
vt 0.741127 0.689305
vt 0.739530 0.689305
vt 0.737933 0.689305
vt 0.736336 0.689305
vt 0.734739 0.689305
vt 0.733143 0.689305
vt 0.731546 0.689305
vt 0.729949 0.689305
vt 0.728352 0.689305
vt 0.726755 0.689305
vt 0.725158 0.689305
vt 0.723561 0.689305
vt 0.721965 0.689305
vt 0.720368 0.689305
vt 0.718771 0.689305
vt 0.717174 0.689305
vt 0.302611 0.683909
vt 0.637500 0.714610
vt 0.637500 0.750000
vt 0.625000 0.689305
vt 0.637500 0.689305
vt 0.711321 0.689305
vt 0.662575 0.689305
vt 0.662575 0.750000
vt 0.797723 0.750000
vt 0.760067 0.750000
s 0
usemtl Material
f 23/1/1 22/2/1 4/3/1 11/4/1
f 25/5/1 23/1/1 11/4/1 15/6/1
f 25/5/1 15/6/1 20/7/1 27/8/1 79/8/1 80/5/1
f 8/9/1 26/10/1 18/11/1
f 26/10/1 27/8/1 20/7/1 18/11/1
f 26/10/2 32/12/2 51/12/2 52/10/2
f 8/13/1 32/12/1 26/10/1
f 37/14/3 35/15/3 61/15/3 62/14/3 114/14/3 100/14/3
f 42/16/4 97/16/4 101/16/4 75/16/4
f 29/17/1 28/18/1 22/2/1 23/1/1
f 7/19/5 17/20/5 33/21/5 45/22/5 19/23/5 5/24/5
f 40/25/1 46/26/1 28/18/1 29/17/1 65/17/1 76/25/1
f 35/15/6 40/25/6 55/25/6 61/15/6
f 6/27/1 44/28/1 89/28/1 88/12/1 32/12/1 8/13/1
f 12/29/3 1/30/3 2/31/3 9/32/3 13/33/3 6/34/3 5/35/3 19/36/3 16/37/3
f 39/38/6 236/39/6 102/39/6 105/38/6
f 119/16/2 114/14/2 62/14/2 56/16/2
f 116/40/2 108/16/2 73/16/2 74/41/2
f 112/42/2 110/43/2 49/44/2 92/44/2
f 16/45/5 19/46/5 45/47/5 69/48/5 148/49/5 149/50/5 150/51/5 151/52/5 152/53/5 153/54/5 154/55/5 155/56/5 156/57/5 157/58/5 158/59/5 159/60/5 160/61/5 161/62/5 162/63/5 163/64/5 164/65/5 165/66/5 166/67/5 167/68/5 168/69/5 169/70/5 170/71/5 171/72/5 172/73/5 173/74/5 174/75/5 175/76/5 64/77/5 43/78/5 41/79/5 36/80/5 12/81/5
f 106/39/4 102/39/4 236/39/4 86/39/4
f 17/82/4 7/83/4 8/84/4 18/85/4 20/86/4 15/87/4 11/88/4 4/3/4 3/89/4 10/90/4 14/91/4 21/92/4
f 3/89/6 4/3/6 22/2/6 28/18/6 46/26/6 34/93/6 2/31/6 1/94/6
f 29/17/3 47/17/3 78/17/3 65/17/3
f 6/95/1 38/96/1 44/28/1
f 35/15/1 34/93/1 46/26/1 40/25/1
f 51/12/1 91/97/1 87/98/1 53/99/1 93/100/1 82/101/1 54/8/1 52/10/1
f 49/41/1 74/102/1 78/103/1 47/17/1 48/1/1 50/5/1 81/104/1 92/105/1
f 55/25/4 40/25/4 76/25/4 77/25/4
f 44/28/4 57/28/4 90/28/4 89/28/4
f 60/96/1 59/38/1 58/39/1 85/106/1 90/107/1 57/28/1
f 62/14/1 61/15/1 55/25/1 77/108/1 73/109/1 56/16/1
f 38/96/3 39/38/3 105/38/3 117/38/3 59/38/3 60/96/3
f 42/16/2 67/110/2 37/14/2 100/14/2 97/16/2
f 27/8/6 54/8/6 82/8/6 79/8/6
f 51/12/3 32/12/3 88/12/3 91/12/3
f 44/28/2 38/96/2 60/96/2 57/28/2
f 29/17/6 23/1/6 48/1/6 47/17/6
f 84/99/3 237/111/3 107/112/3 98/99/3
f 23/1/4 25/5/4 50/5/4 48/1/4
f 27/8/4 26/10/4 52/10/4 54/8/4
f 5/35/2 6/113/2 8/114/2 7/115/2
f 72/41/2 71/116/2 75/16/2 101/16/2 103/41/2
f 76/25/6 65/17/6 78/17/6 77/25/6
f 50/5/2 25/5/2 80/5/2 81/5/2
f 73/109/1 77/25/1 78/117/1 74/41/1
f 80/5/4 79/8/4 82/8/4 81/5/4
f 101/16/5 97/16/5 104/118/5 103/41/5
f 106/39/5 98/99/5 107/112/5 102/118/5
f 86/39/6 84/99/6 98/99/6 106/39/6
f 102/118/5 97/118/5 100/14/5 105/38/5
f 88/12/2 89/28/2 90/28/2 91/12/2
f 90/119/1 85/39/1 87/98/1 91/12/1
f 110/43/1 119/16/1 108/16/1 116/40/1
f 83/41/2 104/120/2 96/121/2 94/41/2
f 92/122/1 81/5/1 82/101/1 93/123/1
f 147/124/5 175/76/5 174/75/5 146/125/5
f 237/99/1 84/99/1 86/39/1 236/39/1
f 6/126/1 13/127/1 9/128/1 2/31/1 34/93/1 35/15/1 37/14/1 66/129/1 39/38/1 38/96/1
f 108/16/4 119/16/4 56/16/4 73/16/4
f 96/130/3 99/131/3 95/111/3 238/132/3 94/133/3
f 103/41/3 104/120/3 83/41/3 72/41/3
f 109/134/3 111/135/3 53/99/3 87/99/3
f 117/38/6 115/39/6 58/39/6 59/38/6
f 99/136/6 107/112/6 237/111/6 95/111/6
f 118/39/6 109/134/6 87/99/6 85/39/6
f 110/43/1 112/42/1 113/137/1 111/135/1
f 115/39/1 111/135/1 109/134/1 118/39/1
f 115/39/1 117/38/1 114/14/1 119/16/1
f 110/138/1 111/138/1 115/138/1 119/138/1
f 93/123/3 113/137/3 112/139/3 92/44/3
f 58/39/4 115/39/4 118/39/4 85/39/4
f 53/99/6 111/135/6 113/140/6 93/99/6
f 49/44/3 110/43/3 116/40/3 74/41/3
f 102/118/5 107/118/5 104/118/5 97/118/5
f 100/14/3 114/14/3 117/38/3 105/38/3
f 104/118/5 107/118/5 99/136/5 96/130/5
f 177/141/5 176/142/5 178/143/5 179/144/5
f 207/145/5 235/146/5 234/147/5 206/148/5
f 205/149/5 233/150/5 232/151/5 204/152/5
f 203/153/5 231/154/5 230/155/5 202/156/5
f 201/157/5 229/158/5 228/159/5 200/160/5
f 198/161/5 199/162/5 227/163/5 226/164/5
f 196/165/5 197/166/5 225/167/5 224/168/5
f 195/169/5 223/170/5 222/171/5 194/172/5
f 192/173/5 193/174/5 221/175/5 220/176/5
f 191/177/5 219/178/5 218/179/5 190/180/5
f 189/181/5 217/182/5 216/183/5 188/184/5
f 186/185/5 187/186/5 215/187/5 214/188/5
f 184/189/5 185/190/5 213/191/5 212/192/5
f 182/193/5 183/194/5 211/195/5 210/196/5
f 180/197/5 181/198/5 209/199/5 208/200/5
f 176/142/7 177/141/7 64/201/7 175/76/7
f 179/144/8 178/143/8 147/124/8 70/202/8
f 181/198/8 180/197/8 68/203/8 120/204/8
f 183/194/8 182/193/8 121/205/8 122/206/8
f 185/190/8 184/189/8 123/207/8 124/208/8
f 187/186/8 186/185/8 125/209/8 126/210/8
f 189/181/8 188/184/8 127/211/8 128/212/8
f 191/177/8 190/180/8 129/213/8 130/214/8
f 193/174/8 192/173/8 131/215/8 132/216/8
f 195/169/8 194/172/8 133/217/8 134/218/8
f 197/166/8 196/165/8 135/219/8 136/220/8
f 199/162/8 198/161/8 137/221/8 138/222/8
f 201/157/8 200/160/8 139/223/8 140/224/8
f 203/153/8 202/156/8 141/225/8 142/226/8
f 205/149/8 204/152/8 143/227/8 144/228/8
f 207/145/8 206/148/8 145/229/8 146/125/8
f 208/200/7 209/199/7 148/49/7 69/48/7
f 210/196/7 211/195/7 150/51/7 149/50/7
f 212/192/7 213/191/7 152/53/7 151/52/7
f 214/188/7 215/187/7 154/55/7 153/54/7
f 216/183/7 217/182/7 156/57/7 155/56/7
f 218/179/7 219/178/7 158/59/7 157/58/7
f 220/176/7 221/175/7 160/61/7 159/60/7
f 222/171/7 223/170/7 162/63/7 161/62/7
f 224/168/7 225/167/7 164/65/7 163/64/7
f 226/164/7 227/163/7 166/67/7 165/66/7
f 228/159/7 229/158/7 168/69/7 167/68/7
f 230/155/7 231/154/7 170/71/7 169/70/7
f 232/151/7 233/150/7 172/73/7 171/72/7
f 234/147/7 235/146/7 174/75/7 173/74/7
f 178/143/9 176/142/9 175/76/9 147/124/9
f 177/141/10 179/144/10 70/202/10 64/201/10
f 206/148/9 234/147/9 173/74/9 145/229/9
f 235/146/10 207/145/10 146/125/10 174/75/10
f 204/152/9 232/151/9 171/72/9 143/227/9
f 233/150/10 205/149/10 144/228/10 172/73/10
f 202/156/9 230/155/9 169/70/9 141/225/9
f 231/154/10 203/153/10 142/226/10 170/71/10
f 200/160/9 228/159/9 167/68/9 139/223/9
f 229/158/10 201/157/10 140/224/10 168/69/10
f 198/161/9 226/164/9 165/66/9 137/221/9
f 227/163/10 199/162/10 138/222/10 166/67/10
f 196/165/9 224/168/9 163/64/9 135/219/9
f 225/167/10 197/166/10 136/220/10 164/65/10
f 194/172/9 222/171/9 161/62/9 133/217/9
f 223/170/10 195/169/10 134/218/10 162/63/10
f 192/173/9 220/176/9 159/60/9 131/215/9
f 221/175/10 193/174/10 132/216/10 160/61/10
f 190/180/9 218/179/9 157/58/9 129/213/9
f 219/178/10 191/177/10 130/214/10 158/59/10
f 188/184/9 216/183/9 155/56/9 127/211/9
f 217/182/10 189/181/10 128/212/10 156/57/10
f 186/185/9 214/188/9 153/54/9 125/209/9
f 215/187/10 187/186/10 126/210/10 154/55/10
f 184/189/9 212/192/9 151/52/9 123/207/9
f 213/191/10 185/190/10 124/208/10 152/53/10
f 182/193/9 210/196/9 149/50/9 121/205/9
f 211/195/10 183/194/10 122/206/10 150/51/10
f 180/197/9 208/200/9 69/48/9 68/203/9
f 209/199/10 181/198/10 120/204/10 148/49/10
f 67/110/1 42/16/1 75/16/1 71/116/1 72/41/1 83/133/1 94/133/1 238/132/1 95/111/1 237/230/1 236/39/1 39/38/1 66/129/1 37/14/1
f 145/229/5 173/74/5 172/73/5 144/228/5
f 143/227/5 171/72/5 170/71/5 142/226/5
f 141/225/5 169/70/5 168/69/5 140/224/5
f 139/223/5 167/68/5 166/67/5 138/222/5
f 137/221/5 165/66/5 164/65/5 136/220/5
f 135/219/5 163/64/5 162/63/5 134/218/5
f 133/217/5 161/62/5 160/61/5 132/216/5
f 131/215/5 159/60/5 158/59/5 130/214/5
f 129/213/5 157/58/5 156/57/5 128/212/5
f 127/211/5 155/56/5 154/55/5 126/210/5
f 125/209/5 153/54/5 152/53/5 124/208/5
f 123/207/5 151/52/5 150/51/5 122/206/5
f 121/205/5 149/50/5 148/49/5 120/204/5
f 24/231/5 10/232/5 3/233/5 1/30/5 12/81/5 36/80/5 41/79/5 30/234/5
f 41/79/5 43/78/5 64/201/5 70/202/5 63/235/5 31/236/5 30/234/5
f 33/21/5 68/203/5 69/48/5 45/22/5
f 14/237/5 10/232/5 24/231/5 30/234/5 31/236/5 63/235/5 70/202/5 147/124/5 146/125/5 145/229/5 144/228/5 143/227/5 142/226/5 141/225/5 140/224/5 139/223/5 138/222/5 137/221/5 136/220/5 135/219/5 134/218/5 133/217/5 132/216/5 131/215/5 130/214/5 129/213/5 128/212/5 127/211/5 126/210/5 125/209/5 124/208/5 123/207/5 122/206/5 121/205/5 120/204/5 68/203/5 33/21/5 17/238/5 21/239/5
