# Blender 4.2.2 LTS
# www.blender.org
mtllib Plate.mtl
o Plate
v 0.180000 0.010000 -0.093018
v 0.168018 0.010000 -0.105000
v 0.171124 0.000000 -0.112500
v 0.187500 0.000000 -0.096124
v 0.168018 0.010000 0.105000
v 0.180000 0.010000 0.093018
v 0.187500 0.000000 0.096124
v 0.171124 0.000000 0.112500
v -0.168018 0.010000 -0.105000
v -0.180000 0.010000 -0.093018
v -0.187500 0.000000 -0.096124
v -0.171124 0.000000 -0.112500
v -0.180000 0.010000 0.093018
v -0.168018 0.010000 0.105000
v -0.171124 0.000000 0.112500
v -0.187500 0.000000 0.096124
v 0.186657 0.050000 -0.150000
v 0.225000 0.050000 -0.111657
v -0.186657 0.050000 0.150000
v -0.225000 0.050000 0.111657
v 0.225000 0.050000 0.111657
v 0.186657 0.050000 0.150000
v -0.225000 0.050000 -0.111657
v -0.186657 0.050000 -0.150000
v 0.183551 0.050000 -0.142500
v 0.217500 0.050000 -0.108551
v -0.183551 0.050000 0.142500
v -0.217500 0.050000 0.108551
v 0.217500 0.050000 0.108551
v 0.183551 0.050000 0.142500
v -0.217500 0.050000 -0.108551
v -0.183551 0.050000 -0.142500
v 0.225000 0.040000 -0.111657
v 0.186657 0.040000 -0.150000
v -0.225000 0.040000 0.111657
v -0.186657 0.040000 0.150000
v 0.186657 0.040000 0.150000
v 0.225000 0.040000 0.111657
v -0.186657 0.040000 -0.150000
v -0.225000 0.040000 -0.111657
vn -0.0000 -1.0000 -0.0000
vn -1.0000 -0.0000 -0.0000
vn -0.0000 -0.0000 1.0000
vn -0.0000 1.0000 -0.0000
vn 1.0000 -0.0000 -0.0000
vn 0.7071 -0.0000 -0.7071
vn -0.7071 -0.0000 0.7071
vn 0.7071 -0.0000 0.7071
vn -0.7071 -0.0000 -0.7071
vn -0.0000 -0.0000 -1.0000
vn -0.5159 0.6839 0.5159
vn 0.5159 0.6839 -0.5159
vn -0.5159 0.6839 -0.5159
vn 0.5159 0.6839 0.5159
vn -0.0000 0.6839 0.7295
vn -0.7295 0.6839 -0.0000
vn 0.7295 0.6839 -0.0000
vn -0.0000 0.6839 -0.7295
vn 0.5159 -0.6839 -0.5159
vn -0.5159 -0.6839 0.5159
vn 0.5159 -0.6839 0.5159
vn -0.5159 -0.6839 -0.5159
vn -0.0000 -0.6839 -0.7295
vn 0.7295 -0.6839 -0.0000
vn -0.7295 -0.6839 -0.0000
vn -0.0000 -0.6839 0.7295
vt 0.145833 0.544897
vt 0.154931 0.531250
vt 0.345069 0.531250
vt 0.354167 0.544897
vt 0.354167 0.705104
vt 0.345069 0.718750
vt 0.154931 0.718750
vt 0.145833 0.705103
vt 0.375000 0.031952
vt 0.625000 0.031952
vt 0.625000 0.218048
vt 0.375000 0.218048
vt 0.375000 0.771302
vt 0.625000 0.771302
vt 0.625000 0.978698
vt 0.375000 0.978698
vt 0.650000 0.547485
vt 0.656657 0.537500
vt 0.843343 0.537500
vt 0.850000 0.547485
vt 0.850000 0.702515
vt 0.843343 0.712500
vt 0.656657 0.712500
vt 0.650000 0.702515
vt 0.375000 0.531952
vt 0.625000 0.531952
vt 0.625000 0.718048
vt 0.375000 0.718048
vt 0.375000 0.478698
vt 0.625000 0.478698
vt 0.375000 0.000000
vt 0.625000 0.000000
vt 0.625000 0.271302
vt 0.375000 0.271302
vt 0.648028 0.506250
vt 0.629167 0.534541
vt 0.646302 0.500000
vt 0.851973 0.743750
vt 0.870833 0.715459
vt 0.875000 0.718048
vt 0.853698 0.750000
vt 0.629167 0.715459
vt 0.648027 0.743750
vt 0.646302 0.750000
vt 0.625000 0.718048
vt 0.870833 0.534541
vt 0.851973 0.506250
vt 0.853698 0.500000
vt 0.875000 0.531952
vt 0.353698 0.500000
vt 0.146302 0.750000
vt 0.125000 0.718048
vt 0.375000 0.718048
vt 0.353698 0.750000
vt 0.125000 0.531952
vt 0.146302 0.500000
s 0
usemtl 
f 11/1/1 12/2/1 3/3/1 4/4/1 7/5/1 8/6/1 15/7/1 16/8/1
f 35/9/2 20/10/2 23/11/2 40/12/2
f 37/13/3 22/14/3 19/15/3 36/16/3
f 1/17/4 2/18/4 9/19/4 10/20/4 13/21/4 14/22/4 5/23/4 6/24/4
f 33/25/5 18/26/5 21/27/5 38/28/5
f 18/26/6 33/25/6 34/29/6 17/30/6
f 36/31/7 19/32/7 20/10/7 35/9/7
f 22/14/8 37/13/8 38/28/8 21/27/8
f 24/33/9 39/34/9 40/12/9 23/11/9
f 39/34/10 24/33/10 17/30/10 34/29/10
f 25/35/4 26/36/4 18/26/4 17/37/4
f 27/38/4 28/39/4 20/40/4 19/41/4
f 29/42/4 30/43/4 22/44/4 21/45/4
f 31/46/4 32/47/4 24/48/4 23/49/4
f 32/47/4 25/35/4 17/37/4 24/48/4
f 26/36/4 29/42/4 21/45/4 18/26/4
f 28/39/4 31/46/4 23/49/4 20/40/4
f 30/43/4 27/38/4 19/41/4 22/44/4
f 2/18/11 1/17/11 26/36/11 25/35/11
f 14/22/12 13/21/12 28/39/12 27/38/12
f 6/24/13 5/23/13 30/43/13 29/42/13
f 10/20/14 9/19/14 32/47/14 31/46/14
f 9/19/15 2/18/15 25/35/15 32/47/15
f 1/17/16 6/24/16 29/42/16 26/36/16
f 13/21/17 10/20/17 31/46/17 28/39/17
f 5/23/18 14/22/18 27/38/18 30/43/18
f 4/4/19 3/3/19 34/50/19 33/25/19
f 16/8/20 15/7/20 36/51/20 35/52/20
f 8/6/21 7/5/21 38/53/21 37/54/21
f 12/2/22 11/1/22 40/55/22 39/56/22
f 3/3/23 12/2/23 39/56/23 34/50/23
f 7/5/24 4/4/24 33/25/24 38/53/24
f 11/1/25 16/8/25 35/52/25 40/55/25
f 15/7/26 8/6/26 37/54/26 36/51/26
